# xmcd
#
# Track frame offsets:
# 150
# 12542
# 27023
# 41969
# 55679
# 71228
# 83557
# 94988
# 108998
# 118978
# 134150
# 146248
#
# Disc length: 2137 seconds
#
#
# Revision: 1
# Processed by: cddbd v1.5.2PL0 Copyright (c) Steve Scherf et al.
# Submitted via: FreeRIP 2.951 
#
DISCID=b508570c
DTITLE=Florian Silbereisen - Das kann nur Liebe sein CD1
DYEAR=2004
DGENRE=Folklore
TTITLE0=A bisserl was geht immer
TTITLE1=Dahoam is dahoam
TTITLE2=Ha-le-lu-ja
TTITLE3=Die Madln vom Land
TTITLE4=Das kann nur Liebe sein
TTITLE5=Heck Meck Polka
TTITLE6=Lustig samma
TTITLE7=Setz Di nieder
TTITLE8=Was ist los, was ist g'schehn
TTITLE9=Zaubermadl
TTITLE10=Volksmusik 2000
TTITLE11=Nimm mi mit zu die Stern'
EXTD=
EXTT0=
EXTT1=
EXTT2=
EXTT3=
EXTT4=
EXTT5=
EXTT6=
EXTT7=
EXTT8=
EXTT9=
EXTT10=
EXTT11=
PLAYORDER=
